<?xml version="1.0" standalone="no"?>
<!DOCTYPE svg PUBLIC "-//W3C//DTD SVG 20010904//EN"
 "http://www.w3.org/TR/2001/REC-SVG-20010904/DTD/svg10.dtd">
<svg version="1.0" xmlns="http://www.w3.org/2000/svg"
 width="576.000000pt" height="520.000000pt" viewBox="0 0 576.000000 520.000000"
 preserveAspectRatio="xMidYMid meet">

<g transform="translate(0.000000,520.000000) scale(0.100000,-0.100000)"
fill="#000000" stroke="none">
<path d="M4535 4801 c-269 -73 -471 -221 -622 -453 -68 -105 -95 -167 -713
-1600 -322 -747 -587 -1357 -590 -1358 -3 0 -47 103 -99 228 -52 125 -188 454
-303 732 -116 278 -279 673 -364 879 -85 205 -164 391 -175 413 -34 66 -86
115 -145 138 -53 19 -75 20 -605 20 -437 0 -550 -3 -546 -12 3 -7 40 -89 82
-183 83 -185 432 -1003 855 -2005 147 -349 314 -741 370 -870 56 -129 114
-263 129 -297 l26 -63 251 0 c250 0 251 0 261 23 6 12 344 798 753 1747 408
949 751 1744 762 1768 47 99 205 233 301 256 27 6 27 6 27 -46 0 -152 104
-347 241 -450 115 -87 240 -128 389 -128 254 0 461 129 570 355 51 106 63 169
58 296 -10 230 -126 411 -340 532 -131 73 -189 88 -358 93 -121 3 -157 1 -215
-15z"/>
<path d="M4250 1938 c0 -747 4 -1197 10 -1238 15 -91 64 -187 118 -227 24 -18
73 -43 110 -55 64 -21 84 -22 485 -26 l417 -3 -2 1228 c-3 1167 -4 1231 -22
1285 -23 71 -72 129 -131 158 -87 42 -173 49 -592 50 l-393 0 0 -1172z"/>
</g>
</svg>
