<svg xmlns="http://www.w3.org/2000/svg" xmlns:xlink="http://www.w3.org/1999/xlink" viewBox="0 0 3714.44 444.72"><defs><style>.cls-1{fill:url(#linear-gradient);}</style><linearGradient id="linear-gradient" y1="222.36" x2="3714.44" y2="222.36" gradientUnits="userSpaceOnUse"><stop offset="0" stop-color="#7b4397"/><stop offset="1" stop-color="#dc2531"/></linearGradient></defs><g id="Layer_2" data-name="Layer 2"><g id="Layer_1-2" data-name="Layer 1"><path class="cls-1" d="M416.21,1.62c-26.9,7.3-47.1,22.1-62.2,45.3-6.8,10.5-9.5,16.7-71.3,160-32.2,74.7-58.7,135.7-59,135.8s-4.7-10.3-9.9-22.8-18.8-45.4-30.3-73.2-27.9-67.3-36.4-87.9-16.4-39.1-17.5-41.3c-3.4-6.6-8.6-11.5-14.5-13.8-5.3-1.9-7.5-2-60.5-2-43.7,0-55,.3-54.6,1.2.3.7,4,8.9,8.2,18.3,8.3,18.5,43.2,100.3,85.5,200.5,14.7,34.9,31.4,74.1,37,87s11.4,26.3,12.9,29.7l2.6,6.3h25.1c25,0,25.1,0,26.1-2.3.6-1.2,34.4-79.8,75.3-174.7s75.1-174.4,76.2-176.8c4.7-9.9,20.5-23.3,30.1-25.6,2.7-.6,2.7-.6,2.7,4.6,0,15.2,10.4,34.7,24.1,45,11.5,8.7,24,12.8,38.9,12.8,25.4,0,46.1-12.9,57-35.5,5.1-10.6,6.3-16.9,5.8-29.6-1-23-12.6-41.1-34-53.2-13.1-7.3-18.9-8.8-35.8-9.3C425.61-.18,422,0,416.21,1.62Zm-28.5,286.3c0,74.7.4,119.7,1,123.8,1.5,9.1,6.4,18.7,11.8,22.7a45.17,45.17,0,0,0,11,5.5c6.4,2.1,8.4,2.2,48.5,2.6l41.7.3-.2-122.8c-.3-116.7-.4-123.1-2.2-128.5a26.75,26.75,0,0,0-13.1-15.8c-8.7-4.2-17.3-4.9-59.2-5h-39.3Zm179.86,154.9H552.14V0h15.43ZM653,185.22l-25-72.5h76.5l25,72.5Zm96.5,57.5,19,55.5L833,112.72h76.5l-115,332H743l-70-202ZM937,185.22v-72.5h72.5v72.5Zm72.5,57.5v202H937v-202Zm111.5,27.5q61,0,73-2.5,12.49-2.5,21-13.75t8.5-26.75a43.51,43.51,0,0,0-8.25-26q-8.25-11.5-21.25-14-9.49-2-86.5-2H1060v-72.5h114q41,0,69.5,17.5t40.5,42.5a124.29,124.29,0,0,1,12,54.5q0,30-13.25,55a110.25,110.25,0,0,1-36.25,40.5l73,122H1235l-61.5-102.5h-41v102.5H1060v-175q2,0,23.5.25T1121,270.22Zm286,174.5h-77.5l126-332H1519l126,332h-77.5l-80-212Zm265.5-259.5v-72.5H1745v72.5Zm72.5,57.5v129.5h131.5v72.5h-204v-202Zm299.49-57.5v-72.5H2117v72.5Zm72.5,57.5v202h-72.5v-202Zm293.49,202h-55L2146,160.22v-47.5h54.5l137.5,186v-186h72.5Zm280-94.5q-4,42.5-37.75,68.5t-78.75,26q-24.51,0-43.75-6.5A85.88,85.88,0,0,1,2497,418q-14-13.75-21.5-24a340.45,340.45,0,0,1-18.5-29.25l64.5-33q8.49,14.5,13.75,21.75t15,13.25a41.57,41.57,0,0,0,22.25,6,105,105,0,0,0,11.5-1q16.5-3,27-12.75t7.5-23.25q-4-16-27.5-19.5-5.5-1-21.5-2.75t-25.25-3a159.22,159.22,0,0,1-24-5.75q-14.76-4.5-24-11a87.8,87.8,0,0,1-18.25-18,86.38,86.38,0,0,1-14-27q-9-26-2-56.5t29.5-50.5q31.5-28.5,77.5-28.5,33,0,59,15.5a100.84,100.84,0,0,1,22.75,19q9.75,11,14.5,19.25t13.25,24.75l-64,33q-5.5-11-8.25-15.75a93.82,93.82,0,0,0-8.25-11.5,31,31,0,0,0-12.25-9.5,43.12,43.12,0,0,0-16.25-2.75q-21,0-32.5,13.5-6,7-6.25,17.5a21.53,21.53,0,0,0,7.75,17.5q6,4.5,17.25,6.5a210.45,210.45,0,0,0,25.5,2.75q14.25.75,19.25,1.75,45.5,6,69.75,36.25T2690.45,350.22Zm41-165v-72.5h72.5v72.5Zm72.5,57.5v202h-72.5v-202Zm185.5,106.5v-72.5h128v101.5q-27,34-54.25,50.25t-71.25,16.25q-61,0-101.25-38t-49.25-99h74q7.5,29.5,27,47.25t49,17.75q32.51,0,54-20v-3.5Zm2.5-236.5q87.49,0,140.5,86l-57.5,43.5a253.81,253.81,0,0,0-15.5-22,170.43,170.43,0,0,0-16.5-17.25,62.42,62.42,0,0,0-22.5-13.5,88.4,88.4,0,0,0-28.5-4.25q-30,0-49.75,17.75t-26.75,47.25h-73.5q9.49-61.5,49-99.5T2991.94,112.72Zm256,130h111.5v-130h72.5v332h-72.5v-130h-111.5v130h-72.5v-332h72.5Zm466.5-130v72.5h-87v129.5h-72V185.22h-87.5v-72.5ZM3592.82,348.89l10.62-10v69.79a36,36,0,0,1-36,36h0a36,36,0,0,1-36-36h0a36.49,36.49,0,0,1,21.53-33.3A145.88,145.88,0,0,0,3592.82,348.89Z"/></g></g></svg>